HIERARCHY
ROOT Hips
{
	OFFSET -0.001795 -0.223333 0.028219
	CHANNELS 6 Xposition Yposition Zposition Zrotation Yrotation Xrotation 
	JOINT LeftUpLeg
	{
		OFFSET 0.069520 -0.091406 -0.006815
		CHANNELS 3 Zrotation Yrotation Xrotation
		JOINT LeftLeg
		{
			OFFSET 0.034277 -0.375199 -0.004496
			CHANNELS 3 Zrotation Yrotation Xrotation
			JOINT LeftFoot
			{
				OFFSET -0.013596 -0.397961 -0.043693
				CHANNELS 3 Zrotation Yrotation Xrotation
				JOINT LeftToe
				{
					OFFSET 0.026358 -0.055791 0.119288
					CHANNELS 3 Zrotation Yrotation Xrotation
					End Site
					{
						OFFSET 0.000000 0.000000 0.000000
					}
				}
			}
		}
	}
	JOINT RightUpLeg
	{
		OFFSET -0.067670 -0.090522 -0.004320
		CHANNELS 3 Zrotation Yrotation Xrotation
		JOINT RightLeg
		{
			OFFSET -0.038290 -0.382569 -0.008850
			CHANNELS 3 Zrotation Yrotation Xrotation
			JOINT RightFoot
			{
				OFFSET 0.015774 -0.398415 -0.042312
				CHANNELS 3 Zrotation Yrotation Xrotation
				JOINT RightToe
				{
					OFFSET -0.025372 -0.048144 0.123348
					CHANNELS 3 Zrotation Yrotation Xrotation
					End Site
					{
						OFFSET 0.000000 0.000000 0.000000
					}
				}
			}
		}
	}
	JOINT Spine
	{
		OFFSET -0.002533 0.108963 -0.026696
		CHANNELS 3 Zrotation Yrotation Xrotation
		JOINT Spine1
		{
			OFFSET 0.005487 0.135180 0.001092
			CHANNELS 3 Zrotation Yrotation Xrotation
			JOINT Spine2
			{
				OFFSET 0.001457 0.052922 0.025425
				CHANNELS 3 Zrotation Yrotation Xrotation
				JOINT Neck
				{
					OFFSET -0.002778 0.213870 -0.042857
					CHANNELS 3 Zrotation Yrotation Xrotation
					JOINT Head
					{
						OFFSET 0.005152 0.064970 0.051349
						CHANNELS 3 Zrotation Yrotation Xrotation
						End Site
						{
							OFFSET 0.000000 0.000000 0.000000
						}
					}
				}
				JOINT LeftShoulder
				{
					OFFSET 0.078845 0.121749 -0.034090
					CHANNELS 3 Zrotation Yrotation Xrotation
					JOINT LeftArm
					{
						OFFSET 0.090977 0.030469 -0.008868
						CHANNELS 3 Zrotation Yrotation Xrotation
						JOINT LeftForeArm
						{
							OFFSET 0.259612 -0.012772 -0.027456
							CHANNELS 3 Zrotation Yrotation Xrotation
							JOINT LeftHand
							{
								OFFSET 0.249234 0.008986 -0.001171
								CHANNELS 3 Zrotation Yrotation Xrotation
								End Site
								{
									OFFSET 0.000000 0.000000 0.000000
								}
							}
						}
					}
				}
				JOINT RightShoulder
				{
					OFFSET -0.081759 0.118833 -0.038615
					CHANNELS 3 Zrotation Yrotation Xrotation
					JOINT RightArm
					{
						OFFSET -0.096012 0.032551 -0.009143
						CHANNELS 3 Zrotation Yrotation Xrotation
						JOINT RightForeArm
						{
							OFFSET -0.253742 -0.013329 -0.021401
							CHANNELS 3 Zrotation Yrotation Xrotation
							JOINT RightHand
							{
								OFFSET -0.255298 0.007772 -0.005559
								CHANNELS 3 Zrotation Yrotation Xrotation
								End Site
								{
									OFFSET 0.000000 0.000000 0.000000
								}
							}
						}
					}
				}
			}
		}
	}
}
MOTION
Frames: 9
Frame Time: 0.050000
0.000000 0.952429 0.000000 -0.081929 2.057613 7.833917 3.454689 -0.929302 -13.098791 -1.922120 0.170186 1.436764 -1.055597 1.887027 8.798287 0.000000 0.000000 0.000000 -3.792386 1.157527 -15.573924 1.484020 -0.019540 5.751861 -3.944163 -11.924663 10.316873 0.000000 0.000000 0.000000 0.596129 -1.022540 19.570957 3.365405 -1.295049 -4.040507 5.255069 6.313043 14.219156 2.898495 0.045175 -16.143232 0.000000 0.000000 0.000000 -25.596681 -21.271154 8.687433 -59.607948 -22.890614 4.261504 3.696674 -37.511538 0.050594 0.000000 0.000000 0.000000 17.399913 30.492114 17.137267 42.082880 37.799881 8.017904 -21.984789 10.217595 -0.934701 0.000000 0.000000 0.000000 
-0.001006 0.952252 -0.000521 -0.361286 -0.147782 7.944997 3.565520 -0.868403 -12.782751 -1.070614 0.088903 1.040296 -0.974487 1.773753 8.720225 0.000000 0.000000 0.000000 -3.913972 1.171855 -15.150820 2.642403 -0.207695 3.902044 -3.177011 -10.901381 11.388472 0.000000 0.000000 0.000000 0.843896 -1.002639 19.646038 4.522520 -1.721466 -5.128971 4.779534 5.812875 15.225733 2.549947 0.006551 -15.429263 0.000000 0.000000 0.000000 -27.449413 -19.933236 8.619701 -56.238247 -23.094371 3.848404 1.771670 -40.123598 0.929131 0.000000 0.000000 0.000000 16.149157 31.627823 16.918005 44.278875 37.943543 8.762007 -23.704269 10.701445 -1.121199 0.000000 0.000000 0.000000 
-0.001813 0.952799 -0.000646 0.032929 -0.966102 7.287185 3.374517 -0.837253 -12.260459 -1.179530 0.070912 2.513635 -0.568810 2.170644 8.048187 0.000000 0.000000 0.000000 -4.207411 1.115882 -14.560260 3.104047 -0.261240 4.085590 -3.596984 -11.859223 11.750860 0.000000 0.000000 0.000000 0.911816 -0.999091 20.041479 4.419250 -1.631524 -5.988070 4.216364 4.592761 15.213834 2.419648 -0.277535 -13.744160 0.000000 0.000000 0.000000 -28.059401 -19.410372 9.001322 -56.390584 -25.699818 5.005547 3.030427 -38.523601 0.626185 0.000000 0.000000 0.000000 15.824767 30.820778 15.928113 45.810571 36.285318 8.493156 -22.714602 14.601992 -1.745145 0.000000 0.000000 0.000000 
-0.002689 0.953699 -0.000604 -0.068043 -2.220392 7.113756 3.563929 -0.779958 -11.851175 -1.387907 0.113712 2.031222 -0.086636 2.956937 8.154008 0.000000 0.000000 0.000000 -3.949583 1.106076 -13.782857 2.955922 -0.243785 3.092704 -2.770654 -10.551649 12.136168 0.000000 0.000000 0.000000 0.634930 -0.896151 20.123665 4.955194 -1.822343 -6.531345 4.191666 4.192874 16.088902 2.404029 -0.349001 -14.136527 0.000000 0.000000 0.000000 -28.072574 -20.245189 10.039738 -57.237651 -25.958266 5.058174 6.799227 -41.697437 -0.568749 0.000000 0.000000 0.000000 16.737835 30.865085 15.923222 45.390554 35.761132 8.088046 -23.343461 16.787954 -2.200742 0.000000 0.000000 0.000000 
-0.003613 0.954596 -0.000165 0.070131 -3.520785 6.629344 3.325129 -0.730043 -10.982239 -1.231979 0.098923 2.032398 0.533138 3.954142 8.175073 0.000000 0.000000 0.000000 -3.803664 1.067046 -12.889269 2.650127 -0.203498 2.688072 -1.957521 -9.138765 11.892636 0.000000 0.000000 0.000000 1.127806 -0.951554 20.274993 5.028933 -1.826755 -7.179682 3.534050 3.227619 16.787096 2.021618 -0.174115 -15.298765 0.000000 0.000000 0.000000 -28.035452 -20.638331 10.975174 -57.179732 -27.741020 5.766474 9.973083 -43.119346 -1.617125 0.000000 0.000000 0.000000 15.703958 29.871934 14.647096 47.050432 35.038920 8.182185 -22.488779 20.509943 -2.746215 0.000000 0.000000 0.000000 
-0.004732 0.955513 0.000583 0.033410 -4.631616 6.515801 3.621455 -0.666214 -10.482421 -1.506713 0.144407 1.811247 0.817425 4.219203 7.676980 0.000000 0.000000 0.000000 -3.422210 1.087987 -12.659920 1.914551 -0.110781 2.650786 -1.080959 -7.457041 11.331234 0.000000 0.000000 0.000000 1.151495 -0.908767 20.164114 5.660183 -2.043648 -7.743068 2.793134 2.277382 17.253253 2.027872 -0.358995 -15.343085 0.000000 0.000000 0.000000 -27.723258 -20.289890 11.333537 -58.171701 -28.835926 6.330259 13.110402 -44.332064 -2.677538 0.000000 0.000000 0.000000 14.808997 29.351750 13.769548 48.084920 34.026859 7.962388 -20.687654 24.534318 -3.115720 0.000000 0.000000 0.000000 
-0.006031 0.955756 0.001531 -0.001671 -5.872504 6.400186 3.693417 -0.617195 -9.949649 -1.465819 0.152339 1.334188 1.318032 5.162658 8.254404 0.000000 0.000000 0.000000 -3.211150 1.100861 -12.488844 1.753300 -0.088389 2.554362 -0.686319 -6.807735 11.163939 0.000000 0.000000 0.000000 1.244833 -0.871760 19.900867 5.661593 -2.031504 -8.157166 2.174594 1.966283 17.646188 2.245658 -0.592845 -15.666124 0.000000 0.000000 0.000000 -28.240716 -20.284445 11.807335 -57.677229 -29.395691 6.409145 15.905463 -46.241169 -3.813075 0.000000 0.000000 0.000000 15.113924 28.919794 13.379215 49.158098 32.675710 7.586490 -19.766428 28.036334 -3.466226 0.000000 0.000000 0.000000 
-0.007272 0.955964 0.002410 -0.062073 -7.097732 6.378525 3.675852 -0.575920 -9.383725 -1.570030 0.178261 0.872862 1.749872 5.689360 7.659793 0.000000 0.000000 0.000000 -3.066264 1.122569 -12.484720 1.787741 -0.093899 2.273568 -0.380518 -6.199917 10.695360 0.000000 0.000000 0.000000 1.218050 -0.815288 19.667040 5.749064 -2.067933 -8.337652 1.543163 1.850172 17.796118 2.469804 -0.803672 -15.918435 0.000000 0.000000 0.000000 -27.987555 -20.056047 11.905502 -58.032812 -30.124498 6.803437 18.780268 -46.868442 -4.954122 0.000000 0.000000 0.000000 15.460655 28.769949 13.196109 49.709826 31.787820 7.308272 -18.002302 30.243423 -3.381029 0.000000 0.000000 0.000000 
-0.008275 0.955968 0.003271 -0.161852 -8.374834 6.444633 3.675906 -0.553267 -9.223315 -1.463886 0.171619 0.727074 2.131181 6.277787 7.688243 0.000000 0.000000 0.000000 -2.904453 1.141261 -12.436793 1.689423 -0.087120 1.941260 0.226505 -5.331376 11.043261 0.000000 0.000000 0.000000 1.249010 -0.768121 19.318231 5.508426 -1.992294 -8.370035 1.296218 1.675476 17.962453 2.453393 -0.860077 -16.383678 0.000000 0.000000 0.000000 -27.946659 -19.942208 12.178123 -58.073797 -30.978762 7.195553 19.765834 -47.212805 -5.281237 0.000000 0.000000 0.000000 15.783267 29.097566 13.213654 49.740733 31.187605 7.055227 -16.872016 31.110357 -3.251322 0.000000 0.000000 0.000000 
